After the birth of Renesmee, the Cullens gather other vampire clans in order to protect the child from a false allegation that puts the family in front of the Volturi.
 


Director: 
Bill Condon

 Writers: 
Melissa Rosenberg (screenplay), Stephenie Meyer (novel)
 
Stars:
 Kristen Stewart, Robert Pattinson and Taylor Lautner

Genres:
 Adventure | Drama | Fantasy | Romance




General
Complete name                            : The Twilight Saga Breaking Dawn - Part 2 2012 CAM x264 AAC-UNiQUE.mp4
Format                                   : MPEG-4
Format profile                           : Base Media
Codec ID                                 : isom
File size                                : 700 MiB
Duration                                 : 1h 42mn
Overall bit rate mode                    : Variable
Overall bit rate                         : 955 Kbps
Encoded date                             : UTC 2012-11-18 15:30:07

Video
ID                                       : 1
Format                                   : AVC
Format/Info                              : Advanced Video Codec
Format profile                           : High@L4.1
Format settings, CABAC                   : Yes
Format settings, ReFrames                : 3 frames
Codec ID                                 : avc1
Codec ID/Info                            : Advanced Video Coding
Duration                                 : 1h 42mn
Bit rate mode                            : Variable
Bit rate                                 : 862 Kbps
Maximum bit rate                         : 40.0 Mbps
Width                                    : 640 pixels
Height                                   : 238 pixels
Display aspect ratio                     : 2.689
Frame rate mode                          : Constant
Frame rate                               : 29.970 fps
Color space                              : YUV
Chroma subsampling                       : 4:2:0
Bit depth                                : 8 bits
Scan type                                : Progressive
Bits/(Pixel*Frame)                       : 0.189
Stream size                              : 631 MiB (90%)

Audio
ID                                       : 2
Format                                   : AAC
Format/Info                              : Advanced Audio Codec
Format profile                           : LC
Codec ID                                 : 40
Duration                                 : 1h 42mn
Bit rate mode                            : Variable
Bit rate                                 : 88.9 Kbps
Maximum bit rate                         : 109 Kbps
Channel(s)                               : 2 channels
Channel positions                        : Front: L R
Sampling rate                            : 44.1 KHz
Compression mode                         : Lossy
Stream size                              : 65.1 MiB (9%)
Language                                 : English

Source                            : MATiNE - Thanks!    

Storyline
After the birth of Renesmee, the Cullens gather other vampire clans in order to protect the child from a false allegation that puts the family in front of the Volturi.

iMDB: http://www.imdb.com/title/tt1673434/






Notes:
Resized to fix the AR, tweaked gamma, sat, brightness, contrast, chroma, and slight sharpen. it still has minor issues like pixelation and a bit bright in parts, but i did what i could with it, cam audio for now got a bit of noise to it but its clear. 

Enjoy another KICKASS UNiQUE RELEASE !!!!!!  

Greets:
TEAM UNiQUE, SN1P3R, HP, JiiNX, DQ1 ... 


 
http://bayimg.com/magfmaAEb
 
http://bayimg.com/MAGfpAaEb
 
http://bayimg.com/nagfeaAeb